<svg width="514" height="533" viewBox="0 0 514 533" fill="none" xmlns="http://www.w3.org/2000/svg">
<g clip-path="url(#clip0_110_298)">
<path d="M210.392 78.1975V77.944C210.802 76.5921 210.965 75.1558 210.965 73.6351C210.965 73.466 211.048 73.2972 211.048 73.1282C211.128 70.509 210.638 68.0588 209.492 65.7778C208.756 63.412 207.447 61.3841 205.646 59.6943C204.256 58.0892 202.618 56.9908 200.736 56.146C199.917 36.2912 209.819 16.6897 227.905 6.55108C253.193 -7.64302 284.863 1.98871 298.612 28.0958C312.36 54.2028 303.031 86.8998 277.743 101.094C253.356 114.781 223.076 106.332 208.593 82.4218C209.409 81.1545 209.982 79.7182 210.392 78.1975Z" fill="black"/>
<path d="M341.493 298.458C308.319 298.458 281.426 270.694 281.426 236.444C281.426 202.195 308.319 174.43 341.493 174.43C374.667 174.43 401.561 202.195 401.561 236.444C401.561 270.694 374.667 298.458 341.493 298.458Z" fill="black"/>
<path d="M247.628 344.929L266.286 317.637L250.819 276.576L233.634 295.923L172.666 218.701L149.18 226.728L216.857 343.66C223.732 355.489 240.017 356.08 247.628 344.929Z" fill="#99644C"/>
<path d="M113.827 149.424L121.518 165.9C122.664 168.266 125.119 169.111 127.084 167.759C129.049 166.407 129.702 163.365 128.556 160.915L120.129 144.692C118.983 142.326 115.382 139.453 113.417 140.805C111.535 142.157 112.764 147.058 113.827 149.424Z" fill="#99644C"/>
<path d="M139.441 215.661L142.059 223.265L150.326 227.49L172.913 218.28C170.865 215.239 169.802 211.352 169.802 207.466V193.018L139.441 215.661Z" fill="#99644C"/>
<path d="M150.16 225.633C160.965 225.633 169.802 214.818 169.802 201.467H128.147L134.122 214.226C137.396 221.239 143.532 225.633 150.16 225.633Z" fill="#99644C"/>
<path d="M158.181 192.765V197.327C158.181 199.609 156.708 201.468 154.826 201.468H124.056C122.174 201.468 120.702 199.609 120.702 197.327V192.765H158.181Z" fill="#256EEF"/>
<path d="M120.702 139.453V134.89C120.702 132.609 122.174 130.75 124.056 130.75H154.826C156.708 130.75 158.181 132.609 158.181 134.89V139.453H120.702Z" fill="#256EEF"/>
<path d="M120.782 139.453H158.181V192.85H120.782V139.453Z" fill="white"/>
<path d="M117.264 180.683C118.9 183.809 122.584 183.809 124.219 180.683C125.039 179.078 125.039 176.965 124.219 175.444C122.584 172.318 118.9 172.318 117.264 175.444C116.445 176.965 116.445 179.078 117.264 180.683Z" fill="#99644C"/>
<path d="M117.264 190.652C118.9 193.779 122.584 193.779 124.219 190.652C125.039 189.047 125.039 186.935 124.219 185.414C122.584 182.287 118.9 182.287 117.264 185.414C116.445 186.935 116.445 189.047 117.264 190.652Z" fill="#99644C"/>
<path d="M150.653 211.439L169.719 201.469V178.826C169.719 175.193 168.82 171.645 167.021 168.772L157.118 151.959C156.625 151.029 155.563 150.945 154.826 151.621C152.208 154.155 152.045 157.281 153.681 160.83L158.101 173.081L157.118 184.064L153.681 188.627C151.635 191.33 150.49 194.879 150.49 198.596V211.439H150.653Z" fill="#99644C"/>
<path d="M117.264 170.628C118.9 173.755 122.584 173.755 124.219 170.628C125.039 169.023 125.039 166.91 124.219 165.39C122.584 162.263 118.9 162.263 117.264 165.39C116.445 166.995 116.445 169.107 117.264 170.628Z" fill="#99644C"/>
<path d="M130.684 206.875H146.316C148.771 206.875 150.733 204.425 150.733 201.467H128.147L130.684 206.875Z" fill="black"/>
<path d="M139.441 199.185C138.357 199.185 137.476 198.277 137.476 197.157C137.476 196.037 138.357 195.129 139.441 195.129C140.525 195.129 141.406 196.037 141.406 197.157C141.406 198.277 140.525 199.185 139.441 199.185Z" fill="white"/>
<path d="M202.291 48.0356C202.944 46.0078 204.909 42.9663 205.482 39.9246C206.138 40.5162 206.874 41.0231 207.691 41.4456C209.819 42.7973 212.111 43.5576 214.566 43.7267C216.204 44.1492 217.84 44.1492 219.475 43.7267C221.93 43.6423 224.222 42.8819 226.35 41.4456C226.677 41.1922 227.006 40.9387 227.25 40.685C228.642 41.2765 230.197 41.6144 231.752 41.6991C233.388 42.1213 235.024 42.1213 236.662 41.6991C239.117 41.6144 241.409 40.854 243.537 39.4177C244.763 38.4039 245.992 37.4745 247.3 36.4607C247.628 36.1228 247.873 35.8694 248.201 35.5312C257.857 42.0369 266.45 48.7116 277.989 57.8362C284.945 63.4124 291.737 69.1577 298.448 75.0721C300.657 77.0153 302.949 78.536 305.485 79.4654C303.194 87.7453 299.266 95.2647 294.11 101.601L250.41 126.272C232.652 126.272 216.531 115.626 209.003 98.9824L206.465 93.2371C204.909 89.8575 204.419 86.0555 205.073 82.4225C205.565 79.212 206.465 73.8045 205.319 70.7631C201.555 61.047 199.017 57.9209 202.291 48.0356Z" fill="#99644C"/>
<path d="M200.736 55.3009C200.572 47.6971 201.964 40.0929 204.746 33.165L265.631 43.1346C267.023 46.9367 268.087 50.8232 268.741 54.794C268.987 58.1736 268.987 61.5531 268.741 64.9327C268.087 68.5657 267.186 72.0299 265.877 75.4092C264.158 79.1268 262.112 82.6755 259.821 85.9703C256.875 89.6033 253.683 92.8985 250.165 95.9399C246.891 98.3904 243.454 100.502 239.936 102.361C238.624 103.037 237.479 103.882 236.416 104.896C228.559 102.277 200.736 55.3009 200.736 55.3009Z" fill="#99644C"/>
<path d="M343.375 168.178C342.557 168.516 341.739 168.854 340.92 169.192C341.82 168.854 342.639 168.516 343.375 168.178Z" fill="black"/>
<path d="M146.153 533H375.374C411.463 478.251 409.99 405.93 371.691 352.785L369.727 350.081L326.845 348.224H272.834L146.153 533Z" fill="black"/>
<path d="M198.527 160.576C198.527 181.444 214.812 200.285 237.072 200.285L361.625 208.481L394.195 206.538L298.611 27.4215L298.202 26.7456L204.829 33.0821C200.982 42.9674 203.764 54.2889 211.621 61.1324L215.221 64.1741L221.687 67.1311L233.471 73.4677C233.471 73.4677 211.621 122.218 201.965 144.185C199.59 149.592 198.527 155.168 198.527 160.576Z" fill="black"/>
<path d="M272.833 348.224H326.845L369.645 350.589L369.317 250.132C369.235 217.35 354.914 186.343 330.364 165.558L329.709 164.967C316.452 153.815 300.084 147.731 283.226 147.731H252.293L225.534 240.162C219.885 259.763 223.322 280.969 234.861 297.531L272.833 348.224Z" fill="white"/>
<path d="M257.203 189.723L256.957 241.176C256.957 257.736 269.969 271.17 286.091 271.17C302.131 271.17 315.061 257.736 315.061 241.176V189.723H257.203Z" fill="black"/>
<path d="M224.961 79.3824C219.4 79.3824 214.895 73.746 214.895 66.7925C214.895 59.8394 219.4 54.2026 224.961 54.2026C230.518 54.2026 235.026 59.8394 235.026 66.7925C235.026 73.746 230.518 79.3824 224.961 79.3824Z" fill="#99644C"/>
<path d="M259.739 204.255L326.845 348.224L272.67 427.388L288.628 450.624L360.888 372.642C369.481 363.431 372.345 349.915 368.172 337.831L313.587 178.909C307.777 162.433 290.101 153.9 274.143 159.898C258.021 165.813 253.929 187.695 259.739 204.255Z" fill="#99644C"/>
</g>
<defs>
<clipPath id="clip0_110_298">
<rect width="514" height="533" fill="white" transform="matrix(-1 0 0 1 514 0)"/>
</clipPath>
</defs>
</svg>
