<svg width="43" height="43" viewBox="0 0 43 43" fill="none" xmlns="http://www.w3.org/2000/svg">
<g clip-path="url(#clip0_928_381)">
<path d="M23.4226 12.8914H19.9296V19.8775H12.9435V23.3705H19.9296V30.3566H23.4226V23.3705H30.4087V19.8775H23.4226V12.8914ZM21.6761 4.15881C12.0353 4.15881 4.21094 11.9832 4.21094 21.624C4.21094 31.2648 12.0353 39.0892 21.6761 39.0892C31.3169 39.0892 39.1413 31.2648 39.1413 21.624C39.1413 11.9832 31.3169 4.15881 21.6761 4.15881ZM21.6761 35.5961C13.974 35.5961 7.70397 29.3261 7.70397 21.624C7.70397 13.9219 13.974 7.65185 21.6761 7.65185C29.3783 7.65185 35.6483 13.9219 35.6483 21.624C35.6483 29.3261 29.3783 35.5961 21.6761 35.5961Z" fill="black"/>
</g>
<defs>
<clipPath id="clip0_928_381">
<rect width="41.9164" height="41.9164" fill="white" transform="translate(0.71875 0.665771)"/>
</clipPath>
</defs>
</svg>
